<?xml version="1.0" encoding="UTF-8" standalone="no"?>
<!-- Generator: Adobe Illustrator 19.0.0, SVG Export Plug-In . SVG Version: 6.00 Build 0)  -->

<svg
   version="1.1"
   id="Capa_1"
   x="0px"
   y="0px"
   viewBox="0 0 487.378 487.378"
   style="enable-background:new 0 0 487.378 487.378;"
   xml:space="preserve"
   sodipodi:docname="internet.svg"
   inkscape:version="1.1.1 (3bf5ae0d25, 2021-09-20)"
   xmlns:inkscape="http://www.inkscape.org/namespaces/inkscape"
   xmlns:sodipodi="http://sodipodi.sourceforge.net/DTD/sodipodi-0.dtd"
   xmlns="http://www.w3.org/2000/svg"
   xmlns:svg="http://www.w3.org/2000/svg"><defs
   id="defs43">
	
</defs><sodipodi:namedview
   id="namedview41"
   pagecolor="#ffffff"
   bordercolor="#666666"
   borderopacity="1.0"
   inkscape:pageshadow="2"
   inkscape:pageopacity="0.0"
   inkscape:pagecheckerboard="0"
   showgrid="false"
   inkscape:zoom="1.3254599"
   inkscape:cx="243.31177"
   inkscape:cy="240.67117"
   inkscape:window-width="1920"
   inkscape:window-height="1027"
   inkscape:window-x="-8"
   inkscape:window-y="-8"
   inkscape:window-maximized="1"
   inkscape:current-layer="Capa_1" />
<g
   id="g6"
   transform="matrix(1.0714622,0,0,1.0714622,-3.4888785e-5,-19.464025)">
		
		
	</g>
<g
   id="g10">
</g>
<g
   id="g12">
</g>
<g
   id="g14">
</g>
<g
   id="g16">
</g>
<g
   id="g18">
</g>
<g
   id="g20">
</g>
<g
   id="g22">
</g>
<g
   id="g24">
</g>
<g
   id="g26">
</g>
<g
   id="g28">
</g>
<g
   id="g30">
</g>
<g
   id="g32">
</g>
<g
   id="g34">
</g>
<g
   id="g36">
</g>
<g
   id="g38">
</g>
<g
   aria-label="SSL"
   id="text1754"
   style="font-size:74.9124px;letter-spacing:6px;word-spacing:0.05px;stroke-width:1.87281"
   transform="matrix(1.0714622,0,0,1.0714622,-3.4888785e-5,-19.464025)"><path
     id="path6202"
     style="-inkscape-font-specification:'sans-serif Bold'"
     d="m 396.98342,374.93361 h 14.08265 v 43.96714 h 24.72695 v 10.64429 h -38.8096 z m -21.94815,1.71918 v 11.55875 q -4.49913,-2.01181 -8.77879,-3.036 -4.27967,-1.02419 -8.08381,-1.02419 -5.04781,0 -7.46198,1.38998 -2.41417,1.38997 -2.41417,4.31624 0,2.1947 1.60945,3.43836 1.64602,1.20708 5.92569,2.08496 l 5.99884,1.20709 q 9.108,1.82891 12.94873,5.5599 3.84072,3.73099 3.84072,10.60772 0,9.03484 -5.37701,13.46082 -5.34044,4.3894 -16.35051,4.3894 -5.19412,0 -10.42482,-0.98762 -5.2307,-0.98761 -10.4614,-2.92627 v -11.88795 q 5.2307,2.77995 10.09561,4.20651 4.9015,1.38997 9.43721,1.38997 4.60887,0 7.05961,-1.53629 2.45075,-1.53628 2.45075,-4.38939 0,-2.56049 -1.6826,-3.95046 -1.64602,-1.38998 -6.62068,-2.48733 l -5.45017,-1.20708 q -8.19354,-1.75576 -11.99768,-5.59649 -3.76757,-3.84072 -3.76757,-10.35166 0,-8.15697 5.26728,-12.54636 5.26727,-4.3894 15.14342,-4.3894 4.49913,0 9.25432,0.69499 4.75518,0.65841 9.83956,2.0118 z m -56.58781,0 v 11.55875 q -4.49914,-2.01181 -8.7788,-3.036 -4.27966,-1.02419 -8.08381,-1.02419 -5.04781,0 -7.46198,1.38998 -2.41417,1.38997 -2.41417,4.31624 0,2.1947 1.60945,3.43836 1.64602,1.20708 5.92569,2.08496 l 5.99884,1.20709 q 9.108,1.82891 12.94873,5.5599 3.84072,3.73099 3.84072,10.60772 0,9.03484 -5.37701,13.46082 -5.34044,4.3894 -16.35051,4.3894 -5.19412,0 -10.42482,-0.98762 -5.2307,-0.98761 -10.4614,-2.92627 v -11.88795 q 5.2307,2.77995 10.09561,4.20651 4.9015,1.38997 9.43721,1.38997 4.60887,0 7.05962,-1.53629 2.45074,-1.53628 2.45074,-4.38939 0,-2.56049 -1.6826,-3.95046 -1.64602,-1.38998 -6.62067,-2.48733 l -5.45017,-1.20708 q -8.19355,-1.75576 -11.99769,-5.59649 -3.76757,-3.84072 -3.76757,-10.35166 0,-8.15697 5.26728,-12.54636 5.26728,-4.3894 15.14342,-4.3894 4.49914,0 9.25432,0.69499 4.75518,0.65841 9.83957,2.0118 z M 433.77174,213.81106 h -0.50282 v -26.48227 c 0,-41.98612 -34.19229,-76.17842 -76.17841,-76.17842 -41.98612,0 -76.17841,34.1923 -76.17841,76.17842 v 26.48227 h -1.8437 c -11.14602,0 -20.11311,8.96709 -20.11311,20.1131 v 110.87352 c 0,11.14602 8.96709,20.11312 20.11311,20.11312 h 154.78715 c 11.14601,0 20.11312,-8.9671 20.11312,-20.11312 V 233.92416 c 0,-11.14601 -9.05091,-20.1131 -20.19693,-20.1131 z m -65.45141,80.53623 c -1.50848,1.08946 -1.9275,2.26273 -1.9275,4.02262 0.0838,8.12905 0.0838,16.2581 0,24.38716 v 0 c 0.1676,3.35218 -1.50848,6.70437 -4.60926,8.21285 -1.6761,0.83805 -3.26838,1.17326 -4.86067,1.17326 -5.19589,0 -9.38612,-4.19022 -9.38612,-9.38611 0,0 0,0 0,-0.0838 0,-8.12905 0,-16.34191 0,-24.47096 0,-1.67609 -0.33521,-2.76554 -1.84369,-3.85501 -7.37481,-5.44729 -9.80515,-14.74961 -6.11775,-22.87866 3.10078,-6.87197 10.05656,-11.31362 17.17996,-11.31362 1.08945,0 2.26272,0.0838 3.35217,0.33521 9.13472,1.84371 15.58767,9.21852 15.67147,18.43702 0.33522,6.45296 -2.26272,11.64884 -7.45861,15.42005 z m 31.59434,-80.53625 h -85.73213 v -26.48226 c 0,-23.63291 19.27506,-42.90796 42.90797,-42.90796 23.6329,0 42.90797,19.19125 42.90797,42.90796 v 26.48226 z M 195.778,440.289 c 8.9,0 17.8,-0.6 26.5,-1.8 -2.9,-7.1 -4.5,-14.8 -4.5,-22.9 v -24.1 c 0,0 0,0 -0.1,0 v -60.7 h 0.1 v -39.8 h -0.1 v -94.6 h 30 c 7,-27.9 23.2,-52.1 45.1,-69.4 -1.5,-3.1 -3,-6.2 -4.5,-9.3 2.8,2.1 5.5,4.3 8.2,6.5 11.5,-8.4 24.4,-14.9 38.2,-19.1 -36,-36.4 -85.4,-58 -138.9,-58 -25.9,0 -50.8,5 -74.7,14.9 -99.5,41.8 -147.3,156.3 -106.5,256.9 29.9,73.6 101.6,121.4 181.2,121.4 z m 21.9,-346.4 c 17.9,10 33.8,32.8 44.8,62.7 h -44.8 z m -39.8,297.6 c -15.9,-11 -30.9,-32.9 -42.8,-60.7 h 42.8 z m 0,-297.6 v 62.7 h -44.8 c 10.9,-28.9 26.9,-51.8 44.8,-62.7 z m -55.8,102.5 h 55.7 v 94.6 h -54.7 c -4,-15.9 -6,-31.9 -6,-47.8 0.1,-15.9 2.1,-31.9 5,-46.8 z m -56.7,134.4 h 26.9 c 5,15.9 11.9,31.9 19.9,45.8 -17.9,-12 -33.9,-26.9 -46.8,-45.8 z m 43.8,-217 c -7,12.9 -12.9,27.9 -17.9,42.8 h -24.9 c 10.9,-16.9 24.9,-31.9 42.8,-42.8 z m -62.7,82.6 h 34.8 c -3,15.9 -4,31.9 -4,46.8 0,14.9 2,30.9 5,47.8 h -35.8 c -10,-31.9 -10,-64.7 0,-94.6 z" /></g></svg>
