<?xml version="1.0" encoding="UTF-8" standalone="no"?>
<svg
   xmlns:dc="http://purl.org/dc/elements/1.1/"
   xmlns:cc="http://creativecommons.org/ns#"
   xmlns:rdf="http://www.w3.org/1999/02/22-rdf-syntax-ns#"
   xmlns:svg="http://www.w3.org/2000/svg"
   xmlns="http://www.w3.org/2000/svg"
   xmlns:sodipodi="http://sodipodi.sourceforge.net/DTD/sodipodi-0.dtd"
   xmlns:inkscape="http://www.inkscape.org/namespaces/inkscape"
   height="512pt"
   viewBox="-66 0 512 512.25735"
   width="512pt"
   version="1.1"
   id="svg26"
   sodipodi:docname="account.svg"
   inkscape:version="0.92.4 (5da689c313, 2019-01-14)">
  <metadata
     id="metadata32">
    <rdf:RDF>
      <cc:Work
         rdf:about="">
        <dc:format>image/svg+xml</dc:format>
        <dc:type
           rdf:resource="http://purl.org/dc/dcmitype/StillImage" />
        <dc:title></dc:title>
      </cc:Work>
    </rdf:RDF>
  </metadata>
  <defs
     id="defs30" />
  <sodipodi:namedview
     pagecolor="#ffffff"
     bordercolor="#666666"
     borderopacity="1"
     objecttolerance="10"
     gridtolerance="10"
     guidetolerance="10"
     inkscape:pageopacity="0"
     inkscape:pageshadow="2"
     inkscape:window-width="1920"
     inkscape:window-height="1017"
     id="namedview28"
     showgrid="false"
     inkscape:zoom="0.62214412"
     inkscape:cx="-115.6946"
     inkscape:cy="178.19256"
     inkscape:window-x="-8"
     inkscape:window-y="-8"
     inkscape:window-maximized="1"
     inkscape:current-layer="svg26"
     showguides="true"
     inkscape:guide-bbox="true">
    <sodipodi:guide
       position="337.54236,255.69624"
       orientation="0,1"
       id="guide119"
       inkscape:locked="false" />
  </sodipodi:namedview>
  <g
     aria-label="?"
     transform="scale(1.0485465,0.95370115)"
     style="font-style:normal;font-weight:normal;font-size:382.0486145px;line-height:1.25;font-family:sans-serif;letter-spacing:0px;word-spacing:0px;fill:#000000;fill-opacity:1;stroke:none;stroke-width:9.55121422"
     id="text88" />
  <path
     style="fill:#000000;stroke-width:0.98104268"
     d="M 341.33398 8.6132812 A 332.72035 332.72035 0 0 0 8.6132812 341.33398 A 332.72035 332.72035 0 0 0 341.33398 674.05273 A 332.72035 332.72035 0 0 0 674.05273 341.33398 A 332.72035 332.72035 0 0 0 341.33398 8.6132812 z M 341.33398 51.207031 A 290.12569 290.12569 0 0 1 631.45898 341.33398 A 290.12569 290.12569 0 0 1 341.33398 631.45898 A 290.12569 290.12569 0 0 1 51.207031 341.33398 A 290.12569 290.12569 0 0 1 341.33398 51.207031 z M 341.33398 144.20703 A 88.403952 88.403952 0 0 0 252.92969 232.60938 A 88.403952 88.403952 0 0 0 341.33398 321.01367 A 88.403952 88.403952 0 0 0 429.73633 232.60938 A 88.403952 88.403952 0 0 0 341.33398 144.20703 z M 261.26172 341.91016 C 205.16217 341.91016 191.25552 391.13882 160 447.19141 C 131.59456 498.13276 205.16217 552.47266 261.26172 552.47266 L 421.99609 552.47266 C 478.09564 552.47266 549.84559 499.10561 523.25977 447.19141 C 494.84566 391.70711 478.09564 341.91016 421.99609 341.91016 L 261.26172 341.91016 z "
     transform="matrix(0.75037696,0,0,0.75037696,-66.128675,0)"
     id="path121" />
</svg>
