<?xml version="1.0" encoding="UTF-8" standalone="no"?>
<svg
   xmlns:dc="http://purl.org/dc/elements/1.1/"
   xmlns:cc="http://creativecommons.org/ns#"
   xmlns:rdf="http://www.w3.org/1999/02/22-rdf-syntax-ns#"
   xmlns:svg="http://www.w3.org/2000/svg"
   xmlns="http://www.w3.org/2000/svg"
   xmlns:sodipodi="http://sodipodi.sourceforge.net/DTD/sodipodi-0.dtd"
   xmlns:inkscape="http://www.inkscape.org/namespaces/inkscape"
   height="512pt"
   viewBox="-66 0 512 512.25735"
   width="512pt"
   version="1.1"
   id="svg26"
   sodipodi:docname="apply.svg"
   inkscape:version="1.0.2-2 (e86c870879, 2021-01-15)">
  <metadata
     id="metadata32">
    <rdf:RDF>
      <cc:Work
         rdf:about="">
        <dc:format>image/svg+xml</dc:format>
        <dc:type
           rdf:resource="http://purl.org/dc/dcmitype/StillImage" />
        <dc:title />
      </cc:Work>
    </rdf:RDF>
  </metadata>
  <defs
     id="defs30" />
  <sodipodi:namedview
     pagecolor="#ffffff"
     bordercolor="#666666"
     borderopacity="1"
     objecttolerance="10"
     gridtolerance="10"
     guidetolerance="10"
     inkscape:pageopacity="0"
     inkscape:pageshadow="2"
     inkscape:window-width="1920"
     inkscape:window-height="1017"
     id="namedview28"
     showgrid="false"
     inkscape:zoom="0.62214412"
     inkscape:cx="88.628983"
     inkscape:cy="71.765947"
     inkscape:window-x="-8"
     inkscape:window-y="-8"
     inkscape:window-maximized="1"
     inkscape:current-layer="svg26"
     inkscape:document-rotation="0" />
  <path
     id="path60"
     style="fill:#000000;stroke-width:1"
     d="M 341.33398 75.318359 A 266.01553 266.01553 0 0 0 75.318359 341.33398 A 266.01553 266.01553 0 0 0 341.33398 607.34961 A 266.01553 266.01553 0 0 0 607.34961 341.33398 A 266.01553 266.01553 0 0 0 581.50977 226.96484 L 607.28516 202.54297 L 607.2832 196.11523 L 563.70312 152.53516 L 557.27539 152.53516 L 542.0625 166.77148 A 266.01553 266.01553 0 0 0 341.33398 75.318359 z M 341.33398 128.35938 A 214.5805 214.5805 0 0 1 503.71289 202.66211 L 331.68945 363.6543 L 231.47656 263.44141 L 225.04688 263.44141 L 181.4668 307.02148 L 181.46875 313.45117 L 331.68945 463.67188 L 541.28906 265.07617 A 214.5805 214.5805 0 0 1 555.91406 342.94141 A 214.5805 214.5805 0 0 1 341.33398 557.52148 A 214.5805 214.5805 0 0 1 126.75195 342.94141 A 214.5805 214.5805 0 0 1 341.33398 128.35938 z "
     transform="matrix(0.75037696,0,0,0.75037696,-66.128675,0)" />
</svg>
