<?xml version="1.0" encoding="UTF-8" standalone="no"?>
<svg
   xmlns:dc="http://purl.org/dc/elements/1.1/"
   xmlns:cc="http://creativecommons.org/ns#"
   xmlns:rdf="http://www.w3.org/1999/02/22-rdf-syntax-ns#"
   xmlns:svg="http://www.w3.org/2000/svg"
   xmlns="http://www.w3.org/2000/svg"
   xmlns:sodipodi="http://sodipodi.sourceforge.net/DTD/sodipodi-0.dtd"
   xmlns:inkscape="http://www.inkscape.org/namespaces/inkscape"
   viewBox="0 0 512 512"
   version="1.1"
   id="svg4"
   sodipodi:docname="exclamation-circle.svg"
   inkscape:version="1.0.2-2 (e86c870879, 2021-01-15)">
  <metadata
     id="metadata10">
    <rdf:RDF>
      <cc:Work
         rdf:about="">
        <dc:format>image/svg+xml</dc:format>
        <dc:type
           rdf:resource="http://purl.org/dc/dcmitype/StillImage" />
        <dc:title></dc:title>
      </cc:Work>
    </rdf:RDF>
  </metadata>
  <defs
     id="defs8" />
  <sodipodi:namedview
     pagecolor="#ffffff"
     bordercolor="#666666"
     borderopacity="1"
     objecttolerance="10"
     gridtolerance="10"
     guidetolerance="10"
     inkscape:pageopacity="0"
     inkscape:pageshadow="2"
     inkscape:window-width="1920"
     inkscape:window-height="1027"
     id="namedview6"
     showgrid="false"
     inkscape:zoom="1.3622282"
     inkscape:cx="256"
     inkscape:cy="256"
     inkscape:window-x="-8"
     inkscape:window-y="-8"
     inkscape:window-maximized="1"
     inkscape:current-layer="svg4" />
  <path
     id="path2"
     d="M 256 8 C 119 8 8 119 8 256 C 8 393 119 504 256 504 C 393 504 504 393 504 256 C 504 119 393 8 256 8 z M 228.56836 79.320312 L 291.16797 79.320312 C 298.83921 79.320312 305.01563 85.494778 305.01562 93.166016 L 305.01562 305.51953 C 305.01562 313.19077 298.83921 319.36719 291.16797 319.36719 L 228.56836 319.36719 C 220.89712 319.36719 214.72266 313.19077 214.72266 305.51953 L 214.72266 93.166016 C 214.72266 85.494778 220.89712 79.320313 228.56836 79.320312 z M 228.56836 345.68945 L 291.16797 345.68945 C 298.83921 345.68945 305.01562 351.86587 305.01562 359.53711 L 305.01562 398.07617 C 305.01562 405.74741 298.83921 411.92383 291.16797 411.92383 L 228.56836 411.92383 C 220.89712 411.92383 214.72266 405.74741 214.72266 398.07617 L 214.72266 359.53711 C 214.72266 351.86587 220.89712 345.68945 228.56836 345.68945 z " />
</svg>
