<?xml version="1.0" encoding="UTF-8" standalone="no"?>
<svg
   xmlns:dc="http://purl.org/dc/elements/1.1/"
   xmlns:cc="http://creativecommons.org/ns#"
   xmlns:rdf="http://www.w3.org/1999/02/22-rdf-syntax-ns#"
   xmlns:svg="http://www.w3.org/2000/svg"
   xmlns="http://www.w3.org/2000/svg"
   xmlns:sodipodi="http://sodipodi.sourceforge.net/DTD/sodipodi-0.dtd"
   xmlns:inkscape="http://www.inkscape.org/namespaces/inkscape"
   height="512pt"
   viewBox="-66 0 512 512.25735"
   width="512pt"
   version="1.1"
   id="svg26"
   sodipodi:docname="logout.svg"
   inkscape:version="0.92.4 (5da689c313, 2019-01-14)">
  <metadata
     id="metadata32">
    <rdf:RDF>
      <cc:Work
         rdf:about="">
        <dc:format>image/svg+xml</dc:format>
        <dc:type
           rdf:resource="http://purl.org/dc/dcmitype/StillImage" />
        <dc:title></dc:title>
      </cc:Work>
    </rdf:RDF>
  </metadata>
  <defs
     id="defs30" />
  <sodipodi:namedview
     pagecolor="#ffffff"
     bordercolor="#666666"
     borderopacity="1"
     objecttolerance="10"
     gridtolerance="10"
     guidetolerance="10"
     inkscape:pageopacity="0"
     inkscape:pageshadow="2"
     inkscape:window-width="1920"
     inkscape:window-height="1017"
     id="namedview28"
     showgrid="false"
     inkscape:zoom="0.62214412"
     inkscape:cx="468.87904"
     inkscape:cy="217.40999"
     inkscape:window-x="-8"
     inkscape:window-y="-8"
     inkscape:window-maximized="1"
     inkscape:current-layer="svg26"
     showguides="true"
     inkscape:guide-bbox="true" />
  <g
     aria-label="?"
     transform="scale(1.0485465,0.95370115)"
     style="font-style:normal;font-weight:normal;font-size:382.0486145px;line-height:1.25;font-family:sans-serif;letter-spacing:0px;word-spacing:0px;fill:#000000;fill-opacity:1;stroke:none;stroke-width:9.55121422"
     id="text88" />
  <path
     style="fill:#000000;stroke-width:2.0644412"
     d="m 54.738846,125.26577 c -5.930934,-0.30998 -10.880082,2.34317 -13.620484,6.98765 -3.255953,3.64708 -5.245765,8.44925 -5.245765,13.74549 v 225.02406 c 0,11.43701 9.207408,20.64442 20.644413,20.64442 h 0.504013 c 0.5786,0.20359 1.161969,0.39686 1.753971,0.55241 l 120.789956,31.74077 c 11.06148,2.90667 19.96703,-3.95758 19.96703,-15.39459 v -16.89859 h 36.25675 c 11.437,0 20.64441,-9.20741 20.64441,-20.64442 v -79.07776 h -21.86211 v 56.77212 c 0,9.16977 -7.38207,16.55183 -16.55181,16.55183 H 199.53198 V 183.54189 c 0,-11.43701 -8.90555,-22.98756 -19.96703,-25.89421 l -22.44675,-5.899 h 60.90102 c 9.16974,0 16.55181,7.38206 16.55181,16.55183 v 43.86938 h 21.86211 v -66.17098 c 0,-11.43701 -9.20741,-20.64441 -20.64441,-20.64441 H 56.51701 c -0.215144,0 -0.423561,0.0248 -0.637066,0.0322 -0.38118,-0.0432 -0.767353,-0.10152 -1.141098,-0.12106 z M 293.206,201.05738 c -3.52369,0 -7.04559,1.38419 -9.74561,4.15308 -5.40006,5.53774 -5.40006,14.45748 0,19.99524 l 9.59641,9.84238 h -65.65889 c -7.63686,0 -13.7858,6.1449 -13.7858,13.78176 0,7.63684 6.14894,13.78579 13.7858,13.78579 h 65.26376 l -10.24157,10.24155 c -5.40006,5.40007 -5.39604,14.09522 0.004,19.49526 5.40006,5.40007 14.09118,5.40007 19.49125,0 L 334.269,259.99879 c 1.03141,-1.0314 1.86249,-2.18126 2.49992,-3.40715 3.86786,-5.52942 3.38863,-13.22493 -1.46365,-18.20092 l -32.34963,-33.18026 c -2.70004,-2.76889 -6.22596,-4.15308 -9.74967,-4.15308 z"
     id="rect101"
     inkscape:connector-curvature="0" />
</svg>
