<?xml version="1.0" encoding="UTF-8" standalone="no"?>
<svg
   xmlns:dc="http://purl.org/dc/elements/1.1/"
   xmlns:cc="http://creativecommons.org/ns#"
   xmlns:rdf="http://www.w3.org/1999/02/22-rdf-syntax-ns#"
   xmlns:svg="http://www.w3.org/2000/svg"
   xmlns="http://www.w3.org/2000/svg"
   xmlns:sodipodi="http://sodipodi.sourceforge.net/DTD/sodipodi-0.dtd"
   xmlns:inkscape="http://www.inkscape.org/namespaces/inkscape"
   height="512pt"
   viewBox="-66 0 512 512.25735"
   width="512pt"
   version="1.1"
   id="svg26"
   sodipodi:docname="QA.svg"
   inkscape:version="1.0.2-2 (e86c870879, 2021-01-15)">
  <metadata
     id="metadata32">
    <rdf:RDF>
      <cc:Work
         rdf:about="">
        <dc:format>image/svg+xml</dc:format>
        <dc:type
           rdf:resource="http://purl.org/dc/dcmitype/StillImage" />
        <dc:title />
      </cc:Work>
    </rdf:RDF>
  </metadata>
  <defs
     id="defs30" />
  <sodipodi:namedview
     pagecolor="#ffffff"
     bordercolor="#666666"
     borderopacity="1"
     objecttolerance="10"
     gridtolerance="10"
     guidetolerance="10"
     inkscape:pageopacity="0"
     inkscape:pageshadow="2"
     inkscape:window-width="1920"
     inkscape:window-height="1017"
     id="namedview28"
     showgrid="false"
     inkscape:zoom="0.62214412"
     inkscape:cx="-194.29763"
     inkscape:cy="147.28403"
     inkscape:window-x="-8"
     inkscape:window-y="-8"
     inkscape:window-maximized="1"
     inkscape:current-layer="svg26"
     showguides="true"
     inkscape:guide-bbox="true"
     inkscape:document-rotation="0">
    <sodipodi:guide
       position="337.54236,255.69624"
       orientation="0,1"
       id="guide119"
       inkscape:locked="false" />
  </sodipodi:namedview>
  <g
     aria-label="?"
     transform="scale(1.0485465,0.95370115)"
     style="font-style:normal;font-weight:normal;font-size:382.0486145px;line-height:1.25;font-family:sans-serif;letter-spacing:0px;word-spacing:0px;fill:#000000;fill-opacity:1;stroke:none;stroke-width:9.55121422"
     id="text88" />
  <path
     id="path194"
     style="fill:#000000;stroke-width:1"
     d="M 240.59766 123.31055 A 192.88135 192.88135 0 0 0 48.220703 316.19141 A 192.88135 192.88135 0 0 0 91.808594 438.31641 L 43.398438 536.39844 L 162.07227 492.14062 A 192.88135 192.88135 0 0 0 241.10156 509.07422 A 192.88135 192.88135 0 0 0 433.98242 316.19141 A 192.88135 192.88135 0 0 0 241.10156 123.31055 A 192.88135 192.88135 0 0 0 240.59766 123.31055 z M 235.24219 200.46875 C 256.94663 200.46875 275.01479 206.72897 289.44531 219.24805 C 303.87583 231.76711 311.0918 247.39032 311.0918 266.11719 C 311.0918 275.63582 308.56826 284.68793 303.52344 293.27539 C 298.47862 301.75939 287.62642 313.40005 270.9668 328.19531 C 262.40234 335.8516 257.06492 342.00822 254.95312 346.66406 C 252.95866 351.31992 252.07786 359.64864 252.3125 371.65039 L 215.5332 371.65039 L 215.35742 361.7168 C 215.35742 348.37003 217.35092 337.55832 221.33984 329.28125 C 225.32877 321.00418 233.07283 311.89928 244.57031 301.9668 C 257.35834 290.79275 265.04197 283.13658 267.62305 278.99805 C 270.20411 274.85951 271.49609 270.04801 271.49609 264.56445 C 271.49609 255.56314 268.15216 248.16699 261.46484 242.37305 C 254.89485 236.57909 246.56424 233.68164 236.47461 233.68164 C 214.77017 233.68164 201.39638 246.45822 196.35156 272.01367 L 159.21875 267.04883 C 160.27464 247.59772 167.84137 231.66365 181.91992 219.24805 C 196.1158 206.72897 213.88971 200.46875 235.24219 200.46875 z M 484.61328 235.82422 A 137.42795 137.42795 0 0 0 443.24805 242.36328 A 215.38419 215.38419 0 0 1 456.48633 316.19141 A 215.38419 215.38419 0 0 1 389.45898 472.19531 A 137.42795 137.42795 0 0 0 484.61328 510.68164 A 137.42795 137.42795 0 0 0 538.3457 499.74219 L 615.81445 525.88672 L 584.73242 467.39648 A 137.42795 137.42795 0 0 0 622.04102 373.25391 A 137.42795 137.42795 0 0 0 484.61328 235.82422 z M 468.78906 288.78711 L 503.32227 288.78711 L 503.32227 330.85938 L 495.13867 421.85352 L 477.10938 421.85352 L 468.78906 330.85938 L 468.78906 288.78711 z M 215.5332 386.70312 L 256.18555 386.70312 L 256.18555 430.31445 L 215.5332 430.31445 L 215.5332 386.70312 z M 470.17578 433.7168 L 502.07227 433.7168 L 502.07227 468.08203 L 470.17578 468.08203 L 470.17578 433.7168 z "
     transform="matrix(0.75037696,0,0,0.75037696,-66.128675,0)" />
  <g
     aria-label="?"
     transform="scale(1.0648664,0.93908494)"
     style="font-style:normal;font-weight:normal;font-size:253.97000122px;line-height:1.25;font-family:sans-serif;letter-spacing:0px;word-spacing:0px;fill:#ffffff;fill-opacity:1;stroke:none;stroke-width:6.34924984"
     id="text231" />
  <g
     aria-label="!"
     transform="scale(1.0648664,0.93908494)"
     style="font-style:normal;font-weight:normal;font-size:200.14289856px;line-height:1.25;font-family:sans-serif;letter-spacing:0px;word-spacing:0px;fill:#ffffff;fill-opacity:1;stroke:none;stroke-width:5.00357246"
     id="text231-6" />
</svg>
